<svg width="1480" height="1024" viewBox="0 0 1480 1024" fill="none" xmlns="http://www.w3.org/2000/svg">
<path d="M-268.384 1420.13C-242.457 1425.96 -217.499 1431.08 -194.055 1435.47C-182.224 1438.21 -168.065 1441.32 -151.835 1444.58M-268.384 1420.13C-557.778 1355.09 -967.976 1202.4 -742.977 1001.14C-663.618 930.153 -503.79 901.174 -304.64 891.522M-268.384 1420.13C-279.995 1374.79 -289.423 1330.73 -296.787 1287.92M-268.384 1420.13C-241.783 1524.01 -203.727 1634.59 -152.799 1752.24C54.6873 2231.52 173.537 1916.82 253.222 1475.14M-304.64 891.522C-242.562 888.513 -176.663 887.383 -108.189 887.443M-304.64 891.522C-245.258 509.25 16.9889 267.77 323.086 128.767C347.529 117.667 373.05 108.401 399.44 100.853M-304.64 891.522C-311.293 934.353 -315.4 978.953 -316.736 1025.37M-108.189 887.443C27.8688 887.563 174.092 892.385 320.702 896.521M-108.189 887.443C-21.0251 633.178 167.534 458.39 367.237 352.773M-108.189 887.443C-120.649 923.788 -131.036 961.757 -139.088 1001.38M320.702 896.521C326.154 896.675 331.608 896.827 337.061 896.979M320.702 896.521C316.461 915.747 312.109 935.107 307.659 954.537M320.702 896.521C340.674 805.964 358.173 718.388 371.864 640.591M337.061 896.979C452.207 900.181 567.369 902.836 677.809 902.333M337.061 896.979C334.729 915.069 332.364 933.435 329.964 952.025M337.061 896.979C349.383 801.397 360.802 713.489 371.864 640.591M677.809 902.333C746.429 902.021 813.227 900.489 877.067 897.113M677.809 902.333C568.618 922.621 449.569 938.416 329.964 952.025M677.809 902.333C760.732 886.925 837.969 868.926 905.447 847.325M877.067 897.113C964.458 892.492 1046.31 884.413 1119.7 871.271M877.067 897.113C887.3 880.928 896.751 864.305 905.447 847.325M877.067 897.113C832.408 967.752 772.854 1030.06 696.105 1077.49C575.112 1152.24 433.646 1211.87 289.307 1251.74M1119.7 871.271C1244.77 848.874 1345.28 811.771 1406.81 752.013C1603.99 560.493 1367.76 303.195 1039.26 167.455M1119.7 871.271C1133.57 818.872 1141.64 764.508 1144.7 709.216M1119.7 871.271C1101.42 940.334 1073.06 1005.98 1032.83 1065.84C828.507 1369.8 516.603 1460.73 253.222 1475.14M1039.26 167.455C989.992 147.095 938.644 129.47 886.371 115.211M1039.26 167.455C907.749 -139.85 686.072 -352.568 557.082 -230.378C476.996 -154.514 428.009 -32.0846 399.44 100.853M1039.26 167.455C1064.88 227.321 1087.08 290.777 1104.51 356.047M886.371 115.211C797.472 90.9624 705.898 76.4517 617.312 74.7885M886.371 115.211C869.716 92.411 851.377 73.5482 831.651 59.4727C748.837 0.380303 678.254 17.3654 617.312 74.7885M886.371 115.211C917.34 157.605 942.486 213.613 959.899 277.775M617.312 74.7885C541.295 73.3613 467.479 81.3947 399.44 100.853M617.312 74.7885C562.262 126.66 515.078 211.529 473.849 303.125M399.44 100.853C381.645 183.654 371.772 270.532 367.237 352.773M-316.736 1025.37C-319.089 1107.14 -312.847 1194.56 -296.787 1287.92M-316.736 1025.37C-497.079 1055.12 -596.842 1095.65 -527.406 1168.95C-471.692 1227.77 -391.648 1266.59 -296.787 1287.92M-316.736 1025.37C-263.731 1016.63 -203.765 1008.82 -139.088 1001.38M-296.787 1287.92C-254.167 1297.5 -208.557 1303.55 -160.818 1306.3M473.849 303.125C450.687 354.584 429.404 408.165 409.663 459.212C396.981 492.006 384.662 556.253 371.864 640.591M473.849 303.125C525.759 282.072 577.345 265.518 627.05 253.286C733.788 227.018 855.16 239.456 959.899 277.775M473.849 303.125C438.297 317.545 402.592 334.075 367.237 352.773M959.899 277.775C1005.14 444.492 998.175 666.265 905.447 847.325M959.899 277.775C1013.97 297.556 1063.6 324.235 1104.51 356.047M905.447 847.325C986.6 821.346 1053.64 790.156 1099.47 751.999C1116.58 737.758 1131.61 723.48 1144.7 709.216M289.307 1251.74C269.012 1257.34 248.659 1262.56 228.299 1267.37M289.307 1251.74C278.178 1327.65 266.221 1403.08 253.222 1475.14M289.307 1251.74C304.164 1150.4 317.546 1048.2 329.964 952.025M228.299 1267.37C94.2818 1299.05 -40.0756 1313.25 -160.818 1306.3M228.299 1267.37C206.716 1343.94 184.617 1415.5 162.945 1477.27M228.299 1267.37C256.305 1168.02 283.443 1060.25 307.659 954.537M-160.818 1306.3C-161.637 1257.36 -160.491 1202.66 -157.033 1141.6C-154.265 1092.74 -148.158 1046.01 -139.088 1001.38M-160.818 1306.3C-159.939 1358.75 -156.803 1404.6 -151.835 1444.58M-139.088 1001.38C-3.9054 985.832 151.858 971.917 307.659 954.537M307.659 954.537C315.095 953.708 322.53 952.87 329.964 952.025M1144.7 709.216C1266.01 577.035 1220.18 446.013 1104.51 356.047M1144.7 709.216C1151.18 592.367 1135.3 471.376 1104.51 356.047M367.237 352.773C361.073 464.578 364.777 567.814 371.864 640.591M-151.835 1444.58C-121.352 1689.9 -21.8955 1714.58 48.2116 1691.22C80.2179 1680.55 120.774 1597.46 162.945 1477.27M-151.835 1444.58C-80.0219 1459.02 32.3358 1476.41 162.945 1477.27M253.222 1475.14C222.381 1476.82 192.205 1477.46 162.945 1477.27" stroke="url(#paint0_linear_3983_4253)"/>
<defs>
<linearGradient id="paint0_linear_3983_4253" x1="1159.59" y1="235.167" x2="-39.6008" y2="389.783" gradientUnits="userSpaceOnUse">
<stop offset="0.170986" stop-color="#081D16"/>
<stop offset="0.465956" stop-color="#06593F"/>
<stop offset="0.657063" stop-color="#00FFAE"/>
<stop offset="1" stop-color="#031812" stop-opacity="0.69"/>
</linearGradient>
</defs>
</svg>
