<svg width="826" height="733" viewBox="0 0 826 733" fill="none" xmlns="http://www.w3.org/2000/svg">
<path d="M1018.38 982.495C1003.28 985.888 988.748 988.871 975.095 991.429C968.205 993.022 959.96 994.834 950.508 996.734M1018.38 982.495C1186.91 944.621 1425.79 855.698 1294.76 738.493C1248.55 697.153 1155.47 680.277 1039.5 674.657M1018.38 982.495C1025.14 956.092 1030.63 930.433 1034.92 905.502M1018.38 982.495C1002.89 1042.99 980.728 1107.39 951.07 1175.9C830.238 1455.01 761.025 1271.75 714.62 1014.53M1039.5 674.657C1003.34 672.905 964.967 672.246 925.091 672.281M1039.5 674.657C1004.91 452.038 852.192 311.411 673.934 230.461C659.7 223.997 644.838 218.601 629.47 214.206M1039.5 674.657C1043.37 699.6 1045.76 725.572 1046.54 752.606M925.091 672.281C845.856 672.351 760.703 675.159 675.323 677.568M925.091 672.281C874.33 524.209 764.521 422.42 648.223 360.913M925.091 672.281C932.346 693.447 938.396 715.558 943.085 738.633M675.323 677.568C672.148 677.657 668.972 677.746 665.796 677.835M675.323 677.568C677.793 688.764 680.327 700.039 682.919 711.354M675.323 677.568C663.692 624.831 653.501 573.831 645.529 528.526M665.796 677.835C598.74 679.699 531.675 681.245 467.359 680.953M665.796 677.835C667.154 688.37 668.531 699.065 669.929 709.891M665.796 677.835C658.621 622.172 651.97 570.978 645.529 528.526M467.359 680.953C427.398 680.771 388.498 679.879 351.32 677.913M467.359 680.953C530.947 692.768 600.276 701.966 669.929 709.891M467.359 680.953C419.069 671.98 374.089 661.498 334.793 648.918M351.32 677.913C300.427 675.221 252.763 670.517 210.023 662.863M351.32 677.913C345.361 668.487 339.857 658.807 334.793 648.918M351.32 677.913C377.328 719.05 412.009 755.338 456.704 782.954C527.165 826.489 609.549 861.212 693.606 884.431M210.023 662.863C137.186 649.82 78.653 628.213 42.8236 593.413C-72.0075 481.88 65.5608 332.041 256.864 252.991M210.023 662.863C201.946 632.349 197.245 600.689 195.46 568.489M210.023 662.863C220.67 703.083 237.181 741.313 260.611 776.17C379.599 953.184 561.239 1006.14 714.62 1014.53M256.864 252.991C285.558 241.135 315.46 230.87 345.902 222.567M256.864 252.991C333.452 74.03 462.547 -49.8473 537.666 21.3107C584.304 65.4903 612.832 136.788 629.47 214.206M256.864 252.991C241.944 287.855 229.016 324.809 218.869 362.819M345.902 222.567C397.673 208.445 451.001 199.995 502.59 199.026M345.902 222.567C355.601 209.289 366.281 198.304 377.769 190.107C425.996 155.694 467.1 165.586 502.59 199.026M345.902 222.567C327.867 247.255 313.223 279.872 303.082 317.237M502.59 199.026C546.859 198.195 589.847 202.874 629.47 214.206M502.59 199.026C534.649 229.234 562.127 278.658 586.137 332M629.47 214.206C639.832 262.425 645.582 313.019 648.223 360.913M1046.54 752.606C1047.91 800.223 1044.27 851.131 1034.92 905.502M1046.54 752.606C1151.56 769.93 1209.66 793.535 1169.22 836.221C1136.78 870.473 1090.17 893.082 1034.92 905.502M1046.54 752.606C1015.67 747.514 980.75 742.964 943.085 738.633M1034.92 905.502C1010.1 911.083 983.54 914.607 955.739 916.206M586.137 332C599.625 361.967 612.02 393.171 623.516 422.898C630.902 441.996 638.076 479.41 645.529 528.526M586.137 332C555.907 319.739 525.865 310.099 496.919 302.976C434.759 287.679 364.078 294.921 303.082 317.237M586.137 332C606.841 340.397 627.634 350.024 648.223 360.913M303.082 317.237C276.733 414.326 280.792 543.477 334.793 648.918M303.082 317.237C271.595 328.757 242.689 344.293 218.869 362.819M334.793 648.918C287.533 633.789 248.494 615.626 221.802 593.404C211.84 585.111 203.083 576.796 195.46 568.489M693.606 884.431C705.425 887.696 717.277 890.733 729.134 893.536M693.606 884.431C700.087 928.64 707.05 972.568 714.62 1014.53M693.606 884.431C684.954 825.416 677.161 765.899 669.929 709.891M729.134 893.536C807.18 911.982 885.424 920.25 955.739 916.206M729.134 893.536C741.704 938.125 754.573 979.801 767.194 1015.77M729.134 893.536C712.825 835.679 697.021 772.918 682.919 711.354M955.739 916.206C956.216 887.703 955.549 855.85 953.535 820.293C951.923 791.834 948.367 764.623 943.085 738.633M955.739 916.206C955.228 946.752 953.401 973.45 950.508 996.734M943.085 738.633C864.36 729.579 773.651 721.475 682.919 711.354M682.919 711.354C678.589 710.871 674.258 710.383 669.929 709.891M195.46 568.489C124.816 491.513 151.503 415.211 218.869 362.819M195.46 568.489C191.687 500.442 200.938 429.982 218.869 362.819M648.223 360.913C651.813 426.023 649.656 486.143 645.529 528.526M950.508 996.734C932.756 1139.6 874.837 1153.97 834.01 1140.37C815.371 1134.16 791.752 1085.77 767.194 1015.77M950.508 996.734C908.687 1005.14 843.255 1015.27 767.194 1015.77M714.62 1014.53C732.581 1015.51 750.154 1015.88 767.194 1015.77" stroke="url(#paint0_linear_3983_4254)"/>
<defs>
<linearGradient id="paint0_linear_3983_4254" x1="186.791" y1="292.424" x2="666.93" y2="-245.197" gradientUnits="userSpaceOnUse">
<stop offset="0.170986" stop-color="#081D16"/>
<stop offset="0.465956" stop-color="#06593F"/>
<stop offset="0.657063" stop-color="#00FFAE"/>
<stop offset="1" stop-color="#031812" stop-opacity="0.69"/>
</linearGradient>
</defs>
</svg>
