<svg width="150" height="150" viewBox="0 0 150 150" fill="none" xmlns="http://www.w3.org/2000/svg">
<g clip-path="url(#clip0_5269_264)">
<rect width="150" height="150" rx="75" fill="url(#paint0_linear_5269_264)"/>
<path d="M61.0154 83.479H100.66C105.329 83.479 109.325 81.8128 112.648 78.4803C115.972 75.1478 117.634 71.1408 117.634 66.4594C117.634 61.7622 115.972 57.7473 112.648 54.4148C109.325 51.0823 105.329 49.416 100.66 49.416H61.0154V53.2378H100.66C103.778 53.2378 106.445 54.3407 108.66 56.5465C110.876 58.7682 113.344 61.9378 113.344 66.4594C113.344 70.981 110.876 74.1269 108.66 76.3485C106.445 78.5702 103.778 79.681 100.66 79.681H61.0154V83.479Z" fill="#020202"/>
<path d="M89.2753 100.584H49.4272C44.7345 100.584 40.7179 98.914 37.3773 95.5734C34.0367 92.2329 32.3665 88.2162 32.3665 83.5235C32.3665 78.8149 34.0367 74.7904 37.3773 71.4498C40.7179 68.1092 44.7345 66.439 49.4272 66.439H89.2753V70.27H49.4272C46.2934 70.27 43.613 71.3756 41.386 73.5867C39.1589 75.8137 36.6785 78.991 36.6785 83.5235C36.6785 88.0561 39.1589 91.2095 41.386 93.4365C43.613 95.6636 46.2934 96.7771 49.4272 96.7771H89.2753V100.584Z" fill="#020202"/>
</g>
<defs>
<linearGradient id="paint0_linear_5269_264" x1="62.4905" y1="131.438" x2="143.828" y2="35.6968" gradientUnits="userSpaceOnUse">
<stop stop-color="#00FF75"/>
<stop offset="1" stop-color="#00FFB3"/>
</linearGradient>
<clipPath id="clip0_5269_264">
<rect width="150" height="150" fill="white"/>
</clipPath>
</defs>
</svg>
