<?xml version="1.0" standalone="no"?>
<!DOCTYPE svg PUBLIC "-//W3C//DTD SVG 20010904//EN"
 "http://www.w3.org/TR/2001/REC-SVG-20010904/DTD/svg10.dtd">
<svg version="1.0" xmlns="http://www.w3.org/2000/svg"
 width="700.000000pt" height="700.000000pt" viewBox="0 0 700.000000 700.000000"
 preserveAspectRatio="xMidYMid meet">
<metadata>
Created by potrace 1.14, written by Peter Selinger 2001-2017
</metadata>
<g transform="translate(0.000000,700.000000) scale(0.100000,-0.100000)"
fill="#000000" stroke="none">
<path d="M2850 4605 l0 -85 913 0 c502 0 949 -4 994 -10 148 -17 273 -90 381
-225 222 -275 199 -577 -64 -841 -80 -81 -179 -135 -278 -153 -40 -7 -373 -11
-1003 -11 l-943 0 0 -90 0 -90 923 0 c549 0 957 4 1009 10 198 23 324 85 473
235 113 113 167 202 207 340 29 105 32 315 4 414 -71 258 -269 469 -521 558
l-80 28 -1007 3 -1008 3 0 -86z"/>
<path d="M2155 3885 c-242 -46 -449 -204 -560 -430 -55 -110 -74 -182 -82
-305 -23 -383 227 -724 601 -820 77 -19 108 -20 1068 -20 l988 0 0 85 0 84
-977 3 c-919 3 -981 5 -1033 22 -104 35 -154 67 -246 160 -76 76 -99 108 -138
186 -107 217 -80 429 82 632 67 84 139 146 214 184 107 54 94 54 1136 54 l962
0 0 90 0 90 -972 -1 c-760 -1 -988 -4 -1043 -14z"/>
</g>
</svg>
