<?xml version="1.0" standalone="no"?>
<!DOCTYPE svg PUBLIC "-//W3C//DTD SVG 20010904//EN"
 "http://www.w3.org/TR/2001/REC-SVG-20010904/DTD/svg10.dtd">
<svg version="1.0" xmlns="http://www.w3.org/2000/svg"
 width="512.000000pt" height="512.000000pt" viewBox="0 0 512.000000 512.000000"
 preserveAspectRatio="xMidYMid meet">
<metadata>
Created by potrace 1.14, written by Peter Selinger 2001-2017
</metadata>
<g transform="translate(0.000000,512.000000) scale(0.100000,-0.100000)"
fill="#000000" stroke="none">
<path d="M0 2560 l0 -2560 2560 0 2560 0 0 2560 0 2560 -2560 0 -2560 0 0
-2560z m3643 945 c122 -21 216 -73 317 -175 98 -97 140 -168 170 -286 56 -218
-4 -445 -160 -603 -125 -126 -246 -180 -417 -189 l-103 -5 0 67 0 66 43 0 c68
0 176 27 225 56 106 62 208 188 249 307 22 63 25 84 21 164 -4 79 -10 102 -40
165 -47 96 -118 181 -196 235 -76 52 -144 73 -234 73 l-68 0 0 70 0 70 58 0
c31 -1 92 -7 135 -15z m-1980 -657 c-1 -16 -1 -45 -2 -67 l-1 -39 -89 -4 c-75
-3 -99 -9 -156 -37 -110 -54 -217 -175 -267 -300 -30 -76 -32 -232 -4 -306 42
-110 133 -223 229 -286 62 -40 117 -57 223 -67 l69 -7 -2 -55 c-1 -30 -2 -58
-2 -62 -1 -14 -154 -8 -220 7 -164 39 -329 169 -409 323 -59 112 -75 191 -69
327 8 180 64 301 198 430 124 118 267 176 429 172 74 -2 74 -2 73 -29z"/>
</g>
</svg>
